<?xml version="1.0" encoding="UTF-8"?>
<svg id="Layer_1" data-name="Layer 1" xmlns="http://www.w3.org/2000/svg" viewBox="0 0 500.01 500.01">
  <defs>
    <style>
      .cls-1 {
        fill: #012a4a;
        stroke: #f9f8f7;
        stroke-miterlimit: 10;
      }

      .cls-2 {
        fill: #468faf;
      }

      .cls-2, .cls-3 {
        stroke-width: 0px;
      }

      .cls-3 {
        fill: #fcfcfc;
      }
    </style>
  </defs>
  <rect class="cls-3" width="500.01" height="500.01"/>
  <path class="cls-1" d="m324.44,294.77v3.79c-1.8,4.11-4,7.92-6.58,11.44h-160.77l94.36-144h-89.44v-15.23h119.19l-35.54,54.22c-1.83.62-3.66,1.31-5.48,2.08-9,3.93-16.8,9.2-23.39,15.81-6.75,6.75-12.03,14.63-15.83,23.63-3.94,9-5.9,18.56-5.9,28.69,0,2.22.09,4.41.28,6.57.37,4.46,1.15,8.79,2.31,13h126.79Z"/>
  <g>
    <path class="cls-2" d="m342.91,280.47l-1.48,8.85c-3.08,17.45-11.59,31.79-25.52,43.04-13.91,11.25-29.59,16.88-47.04,16.88-10.12,0-19.69-1.97-28.69-5.92-9-3.79-16.8-9.06-23.39-15.81-5.23-5.12-9.57-10.96-13.03-17.51h17.36c1.79,2.41,3.79,4.73,6,6.97,11.39,11.66,25.3,17.5,41.75,17.5,12.95,0,24.76-3.72,35.44-11.17,5.32-3.82,9.83-8.26,13.55-13.3,2.58-3.52,4.78-7.33,6.58-11.44.75-1.69,1.43-3.43,2.04-5.22h-58.23v-12.87h74.66Z"/>
    <path class="cls-2" d="m339.75,254.32h-15.61c-4.5-11.68-11.74-20.96-21.73-27.85-10.12-6.89-21.3-10.34-33.54-10.34-16.3,0-30.22,5.77-41.75,17.3-.1.1-.2.21-.3.31-6,6.07-10.42,12.8-13.24,20.19l-18.24,27.84c-.19-2.16-.28-4.35-.28-6.57,0-10.13,1.96-19.69,5.9-28.69,3.8-9,9.08-16.88,15.83-23.63,6.59-6.61,14.39-11.88,23.39-15.81,1.82-.77,3.65-1.46,5.48-2.08,7.2-2.42,14.45-3.63,21.75-3.63,17.16,0,32.26,4.86,45.34,14.57,13.22,9.7,22.22,22.51,27,38.39Z"/>
    <path class="cls-2" d="m209.81,275.2c0,6.94,1.06,13.46,3.19,19.57h-15.35c-1.16-4.21-1.94-8.54-2.31-13l18.24-27.84c-2.52,6.57-3.77,13.65-3.77,21.27Z"/>
  </g>
  <path class="cls-2" d="m221.89,283.9c1.59-.1,2.93-.67,4.05-1.71,1.26-1.18,1.89-2.66,1.89-4.44s-.63-3.24-1.89-4.44c-1.24-1.13-2.77-1.7-4.59-1.7h-6.52v20.37h2.11v-8.06h2.43l5.98,8.06h2.82l-6.28-8.08Zm-4.95-1.98v-8.29h4.73c1.23,0,2.21.37,2.95,1.12.74.78,1.11,1.76,1.11,2.94s-.39,2.2-1.17,3.02c-.75.81-1.72,1.21-2.89,1.21h-4.73Z"/>
  <path class="cls-2" d="m250.36,277.66c-.55-1.28-1.3-2.39-2.25-3.33-.96-.95-2.08-1.7-3.35-2.25-1.28-.55-2.64-.82-4.06-.82s-2.81.27-4.07.82c-1.28.55-2.38,1.3-3.31,2.25-.96.94-1.71,2.05-2.25,3.33-.56,1.28-.83,2.63-.83,4.06s.27,2.81.83,4.08c.54,1.29,1.29,2.39,2.25,3.32.93.96,2.03,1.71,3.31,2.25,1.26.57,2.62.85,4.07.85s2.78-.28,4.06-.85c1.27-.54,2.39-1.29,3.35-2.25.95-.93,1.7-2.03,2.25-3.32.54-1.27.81-2.63.81-4.08s-.27-2.78-.81-4.06Zm-3.75,10c-1.64,1.64-3.61,2.46-5.91,2.46s-4.29-.82-5.92-2.46c-1.64-1.64-2.46-3.62-2.46-5.94s.82-4.25,2.46-5.89c1.63-1.64,3.61-2.46,5.92-2.46s4.27.82,5.91,2.46,2.46,3.6,2.46,5.89-.82,4.3-2.46,5.94Z"/>
  <path class="cls-2" d="m260.47,293.21l-9.27-21.6h2.29l6.98,16.42,6.94-16.42h2.29l-9.23,21.6Z"/>
</svg>